<svg xmlns="http://www.w3.org/2000/svg" xmlns:xlink="http://www.w3.org/1999/xlink" viewBox="0 0 500 500"><defs><clipPath id="freepik--clip-path--inject-18"><path d="M317.7,306.53s-3.15,6.77,5.17,10.25,9.89,8.12,8.31,13.73l-1.34,2.32s-.9-6.38-2.93-3.48.45,4.83,2.25,7,1.8,7.74-1.12,10.83-25.4,6.77-30.57,3.09-9-3.67-9.44-12.76,3.37-10.25,2.7-18.37-3.15-10.06-.23-16.05,14.84-17.22,17.53-19.54a3.48,3.48,0,0,1,3.09-1,1.39,1.39,0,0,1,.94,1.9c-1.18,2.74-4.17,10.14-4.7,16.33-.34,3.94,2.19,8.82,6.07,7.93S317.7,306.53,317.7,306.53Z" style="fill:none"></path></clipPath><clipPath id="freepik--clip-path-2--inject-18"><path d="M318.39,277.83s-2.75,1.35-2.23,2.93,2.89,6.67,2.89,10.06V297a63.61,63.61,0,0,0,2.89-11.64C322.46,280.43,320,276.68,318.39,277.83Z" style="fill:none"></path></clipPath><clipPath id="freepik--clip-path-3--inject-18"><path d="M305.37,278.68s-1.48-7.27.63-12.55,2.54-7.82,1.91-10,.27-3.1.27-3.1,5,2.91,5.44,7.83-2.54,5.82-4.55,9.46A66.93,66.93,0,0,0,305.37,278.68Z" style="fill:none"></path></clipPath></defs><g id="freepik--background-simple--inject-18"><path d="M204.59,59.65l1.64,1.47C220,73.54,226.1,92.4,221.51,110.19a47.25,47.25,0,0,1-2.26,6.71,52.18,52.18,0,0,1-38.71,30.44c-10,1.68-20.9.6-29.56,5.77-11.27,6.74-14.36,21.23-16.41,34.11s-5.17,27.37-16.47,34.05c-7.08,4.19-16,4.24-24,2.26-21.25-5.25-37.58-23.88-43.48-44.73s-2.47-43.41,5.7-63.42c11.46-28,32.91-52.69,61-64.6S180.23,41.16,204.59,59.65Z" style="fill:#f5f5f5"></path><circle cx="418.56" cy="87.73" r="31.65" transform="translate(-4.91 147.42) rotate(-19.86)" style="fill:#f5f5f5"></circle></g><g id="freepik--Floor--inject-18"><path d="M23,361.52c0-.14,101.65-.26,227-.26s227,.12,227,.26-101.62.26-227,.26S23,361.66,23,361.52Z" style="fill:#263238"></path></g><g id="freepik--Fireplace--inject-18"><rect x="185.31" y="188.91" width="246.62" height="166.11" style="fill:#2F80EC"></rect><g style="opacity:0.30000000000000004"><path d="M381.13,355H237.81V242.9c47.35-14.39,95.13-14.27,143.32,0Z"></path></g><path d="M452.77,181.69H169.49a3.77,3.77,0,0,1-3.77-3.77h0a3.77,3.77,0,0,1,3.77-3.77H452.77a3.77,3.77,0,0,1,3.77,3.77h0A3.77,3.77,0,0,1,452.77,181.69Z" style="fill:#2F80EC"></path><path d="M441.93,188.91H177.73a3.78,3.78,0,0,1-3.78-3.78h0a3.77,3.77,0,0,1,3.78-3.77h264.2a3.77,3.77,0,0,1,3.78,3.77h0A3.78,3.78,0,0,1,441.93,188.91Z" style="fill:#2F80EC"></path><g style="opacity:0.4"><path d="M441.93,188.91H177.73a3.78,3.78,0,0,1-3.78-3.78h0a3.77,3.77,0,0,1,3.78-3.77h264.2a3.77,3.77,0,0,1,3.78,3.77h0A3.78,3.78,0,0,1,441.93,188.91Z" style="fill:#fff"></path></g><path d="M433.74,211.15H184.22a3.77,3.77,0,0,1-3.78-3.77h0a3.77,3.77,0,0,1,3.78-3.77H433.74a3.77,3.77,0,0,1,3.77,3.77h0A3.77,3.77,0,0,1,433.74,211.15Z" style="fill:#2F80EC"></path><g style="opacity:0.30000000000000004"><path d="M371.52,355H246.44V256.61c41.32-9.53,83-9.37,125.08,0Z"></path></g><g style="opacity:0.30000000000000004"><polygon points="194.27 342.01 194.27 223.1 223.21 223.1 223.21 220.77 192.42 220.77 192.42 341.65 194.27 342.01"></polygon></g><g style="opacity:0.30000000000000004"><polygon points="397.34 341.83 397.34 222.92 426.27 222.92 426.27 220.59 395.48 220.59 395.48 341.46 397.34 341.83"></polygon></g><g style="opacity:0.6000000000000001"><path d="M224.21,342.65H191.42V219.77h32.79Zm-30.79-2h28.79V221.77H193.42Z" style="fill:#fff"></path></g><g style="opacity:0.6000000000000001"><path d="M428.11,342.65H393.65V219.77h34.46Zm-32.46-2h30.46V221.77H395.65Z" style="fill:#fff"></path></g><g style="opacity:0.5"><path d="M425.19,201.08H189.74v-8.17H425.19Zm-233.45-2H423.19v-4.17H191.74Z" style="fill:#fff"></path></g><path d="M333.84,349.6c.15-4.8,4-10.57,3.86-15.37,0-2.14-1-4.23-.69-6.35.05-.33.16-.71.48-.83s.78.2,1.05.51c1.7,2,3.39,3.95,5,5.95a11.71,11.71,0,0,1,2.73,4.6c.66,2.87-1,5.89-3.3,7.69s-6.32,3.1-9.18,3.8" style="fill:#2F80EC"></path><path d="M317.7,306.53s-3.15,6.77,5.17,10.25,9.89,8.12,8.31,13.73l-1.34,2.32s-.9-6.38-2.93-3.48.45,4.83,2.25,7,1.8,7.74-1.12,10.83-25.4,6.77-30.57,3.09-9-3.67-9.44-12.76,3.37-10.25,2.7-18.37-3.15-10.06-.23-16.05,14.84-17.22,17.53-19.54a3.5,3.5,0,0,1,3.05-1,1.41,1.41,0,0,1,1,1.95c-1.19,2.76-4.15,10.13-4.68,16.29-.34,3.94,2.19,8.82,6.07,7.93S317.7,306.53,317.7,306.53Z" style="fill:#2F80EC"></path><path d="M318.39,277.83s-2.75,1.35-2.23,2.93,2.89,6.67,2.89,10.06V297a63.61,63.61,0,0,0,2.89-11.64C322.46,280.43,320,276.68,318.39,277.83Z" style="fill:#2F80EC"></path><path d="M305.37,278.68s-1.48-7.27.63-12.55,2.54-7.82,1.91-10,.27-3.1.27-3.1,5,2.91,5.44,7.83-2.54,5.82-4.55,9.46A66.93,66.93,0,0,0,305.37,278.68Z" style="fill:#2F80EC"></path><path d="M324.39,274.24h-.31a1.19,1.19,0,0,0-1.14.77.87.87,0,0,0-.11.48c0,.11,0,.22.05.33a1.18,1.18,0,0,0,.32.55l.25.2a1.29,1.29,0,0,0,.63.17h.31a1,1,0,0,0,.48-.11,1.15,1.15,0,0,0,.66-.66,1,1,0,0,0,.11-.48l-.05-.34a1.23,1.23,0,0,0-.32-.55l-.25-.19a1.19,1.19,0,0,0-.63-.17Z" style="fill:#2F80EC"></path><path d="M281,298.37v.26a.91.91,0,0,0,.11.49.87.87,0,0,0,.26.4.9.9,0,0,0,.4.26.89.89,0,0,0,.48.1l.33,0a1.27,1.27,0,0,0,.55-.32l.2-.25a1.3,1.3,0,0,0,.17-.64v-.26a.89.89,0,0,0-.11-.48.87.87,0,0,0-.26-.4.9.9,0,0,0-.4-.26,1,1,0,0,0-.48-.11l-.33.05a1.18,1.18,0,0,0-.55.32l-.2.25a1.29,1.29,0,0,0-.17.63Z" style="fill:#2F80EC"></path><path d="M296.32,277.16a.63.63,0,0,0,0-1.25.63.63,0,0,0,0,1.25Z" style="fill:#2F80EC"></path><path d="M330.25,305.63h.31a.39.39,0,0,0,.24-.05.53.53,0,0,0,.2-.13.44.44,0,0,0,.13-.2.42.42,0,0,0,.05-.24l0-.17a.57.57,0,0,0-.16-.27l-.12-.1a.62.62,0,0,0-.32-.09h-.31a.53.53,0,0,0-.24.06.41.41,0,0,0-.2.13.46.46,0,0,0-.13.2.47.47,0,0,0-.05.24l0,.16a.61.61,0,0,0,.16.28l.13.1a.68.68,0,0,0,.31.08Z" style="fill:#2F80EC"></path><path d="M324.68,264.12l.3-.26a.44.44,0,0,0,.13-.2.53.53,0,0,0,.06-.24.48.48,0,0,0-.06-.24.39.39,0,0,0-.13-.2l-.12-.1a.62.62,0,0,0-.32-.09l-.17,0a.65.65,0,0,0-.27.17l-.31.26a.53.53,0,0,0-.13.2.6.6,0,0,0,0,.48.46.46,0,0,0,.13.2l.13.1a.59.59,0,0,0,.31.09l.17,0a.61.61,0,0,0,.28-.16Z" style="fill:#2F80EC"></path><path d="M303.61,253.47l.31-.26a.53.53,0,0,0,.13-.2.6.6,0,0,0,0-.48.46.46,0,0,0-.13-.2l-.13-.1a.59.59,0,0,0-.31-.09l-.17,0a.61.61,0,0,0-.28.16l-.3.26a.44.44,0,0,0-.13.2.42.42,0,0,0-.05.24.66.66,0,0,0,.18.44l.12.1a.62.62,0,0,0,.32.09l.17,0a.65.65,0,0,0,.27-.17Z" style="fill:#2F80EC"></path><path d="M280.48,330.49c-2.4-.88-2.65-3.27-1.87-5.71.63-1.95,2.46-3.72,1.91-5.7-.49-1.79-2.61-2.48-4-3.66a5.88,5.88,0,0,1,4.46-10.37c.45.55.12,1.41-.39,1.92a9.49,9.49,0,0,0-1.56,1.47c-.8,1.3.13,3,1.27,4s2.6,1.79,3.23,3.17c.77,1.7,0,3.72-1,5.27s-2.45,2.89-3.15,4.62-.47,4.08,1.17,5" style="fill:#2F80EC"></path><g style="opacity:0.2"><path d="M323.61,339.85c-.5-2.6-2.84-4.71-2.88-7.35,0-3.07,3.08-6.06,1.71-8.83-1.22-2.45-5.17-2.68-6.33-5.17-.67-1.44-.32-3.5-1.73-4.3-1.08-.61-2.41,0-3.64.18-3.5.55-6.68-2.58-7.46-5.93s.14-6.82.86-10.19a3.75,3.75,0,0,0,.07-1.85,1.36,1.36,0,0,0-1.43-1,2,2,0,0,0-.95.6c-2.76,2.61-5.63,5.39-6.7,9-1.14,3.81-1.88,6.77-.57,10.53s2.67,6.16,2.45,10.12c-.16,2.79-2.19,5-3,7.72a14.67,14.67,0,0,0,.65,10.42c1.09,2.57,7.05,7.31,9.84,8l5.37-.16c2.49-.95,8.8-3.17,10.82-4.88S324.1,342.4,323.61,339.85Z" style="fill:#fff"></path></g><g style="opacity:0.2"><path d="M307.52,351.7c3.26-2.08,5-8.95,4.58-13.25s-2-8.38-3.57-12.39l-2.4-6.09c-.35-.89-.93-1.94-1.89-1.9-.73,0-1.25.73-1.52,1.41-1,2.66.13,5.62.26,8.47.13,3.2-1.07,6.31-1.16,9.51-.16,5.41,1.53,13.12,5.7,14.24" style="fill:#fff"></path></g><g style="clip-path:url(#freepik--clip-path--inject-18)"><g style="opacity:0.30000000000000004"><path d="M295.06,350c-2.82-3.37-5.8-7.18-5.66-11.57.08-2.68,1.34-5.16,2.18-7.71a26.07,26.07,0,0,0,.93-12.61c-.55-3.14-1.68-6.2-1.75-9.39-.1-4.79,2.25-9.36,5.47-12.91,3-3.33,8.42-7.12,12.38-9.75a.26.26,0,0,1,.38.32,42.16,42.16,0,0,0-3.06,9.89c-.43,3.17-1.3,8.86.1,11.74,1.68,3.46,7.63.39,9.65,1.89,1.34,1,.72,4,2.07,5a103.13,103.13,0,0,0,8.74,5.9,7.8,7.8,0,0,1,2.93,3.35c2.29,5.1-2.64.82-3.78,4.51-1.73,5.63,3.44,12,.83,17.27-.52,1.07-1.36,2-1.37,3.26a1.64,1.64,0,0,0,1,1.6c1.06.41,2-.59,2.59-1.47,3.29-4.72,6.26-9.77,7.66-15.34s1.07-11.78-1.92-16.69c-2.39-3.92-6.22-6.69-9.75-9.62s-7-6.35-8.18-10.79.09-9.15-1.87-13.46a6.91,6.91,0,0,0-3.5-3.6c-3.17-1.35-5.78.62-8,2.49-5.08,4.2-10.13,8.6-13.67,14.17S284,309,285.82,315.34c1.06,3.67,3.3,7,3.64,10.83.38,4.28-3.22,6.69-3.48,11-.33,5.28,3.87,12.36,8.3,15.26"></path></g></g><g style="clip-path:url(#freepik--clip-path-2--inject-18)"><g style="opacity:0.30000000000000004"><path d="M318.23,291.91a12.45,12.45,0,0,0,.3-6c-.2-1-.17-4.84.52-5.6.39-.43,1.78,2.13,2.26,3.1,4.44,9,1.92,1.09,1.83-.57l.44-.85-2.67-4.94-3.43-.52-3.82,2.7,2.44,4.48Z"></path></g></g><path d="M308.67,349.85a50.75,50.75,0,0,1-1.89-17.76,42.07,42.07,0,0,1,1.4,17.39" style="fill:#fff"></path><rect x="246.51" y="319.01" width="42.12" height="1.57" style="fill:#263238"></rect><rect x="246.65" y="348.84" width="41.97" height="1.57" style="fill:#263238"></rect><rect x="237.98" y="333.8" width="29.59" height="1.57" transform="translate(-81.81 587.36) rotate(-90)" style="fill:#263238"></rect><rect x="267.78" y="333.8" width="29.59" height="1.57" transform="translate(-52.01 617.16) rotate(-90)" style="fill:#263238"></rect><rect x="249.43" y="349.96" width="1.49" height="2.76" style="fill:#263238"></rect><rect x="267.05" y="349.96" width="1.49" height="2.76" style="fill:#263238"></rect><rect x="284.37" y="349.96" width="1.49" height="2.76" style="fill:#263238"></rect><rect x="246.51" y="326.77" width="6.27" height="1.54" style="fill:#263238"></rect><rect x="282.34" y="326.77" width="7.28" height="1.54" style="fill:#263238"></rect><rect x="282.34" y="341.06" width="6.49" height="1.54" style="fill:#263238"></rect><rect x="246.51" y="341.41" width="6.27" height="1.54" style="fill:#263238"></rect><path d="M267.64,350.62h0a1,1,0,0,1-.7-.3l-14.59-15a1,1,0,0,1,0-1.4l14.59-14.79a1,1,0,0,1,.72-.3h0a1,1,0,0,1,.71.3l14.95,15.32a1,1,0,0,1,.28.71,1,1,0,0,1-.3.7l-14.95,14.52A1,1,0,0,1,267.64,350.62Zm-13.2-16,13.22,13.62,13.5-13.12-13.53-13.87Z" style="fill:#263238"></path><path d="M272.58,340.73h-9.87a1,1,0,0,1-1-1v-9.88a1,1,0,0,1,1-1h9.87a1,1,0,0,1,1,1v9.88A1,1,0,0,1,272.58,340.73Zm-8.87-2h7.87v-7.88h-7.87Z" style="fill:#263238"></path><path d="M272.58,330.85a1,1,0,0,1-.75-.34,1,1,0,0,1,.09-1.41l2.62-2.31a1,1,0,0,1,1.41.09,1,1,0,0,1-.09,1.41l-2.62,2.31A1,1,0,0,1,272.58,330.85Z" style="fill:#263238"></path><path d="M262.71,330.85a1,1,0,0,1-.76-.34l-2.34-2.69a1,1,0,0,1,1.51-1.32l2.34,2.7a1,1,0,0,1-.09,1.41A1,1,0,0,1,262.71,330.85Z" style="fill:#263238"></path><path d="M260.41,343.18a1,1,0,0,1-.73-1.69L262,339a1,1,0,0,1,1.46,1.37l-2.3,2.45A1,1,0,0,1,260.41,343.18Z" style="fill:#263238"></path><path d="M275.2,343.27a1,1,0,0,1-.7-.28l-2.61-2.55a1,1,0,0,1,1.39-1.43l2.62,2.55a1,1,0,0,1-.7,1.71Z" style="fill:#263238"></path><rect x="288.29" y="319.01" width="42.12" height="1.57" style="fill:#263238"></rect><rect x="288.43" y="348.84" width="41.97" height="1.57" style="fill:#263238"></rect><rect x="279.76" y="333.8" width="29.59" height="1.57" transform="translate(-40.03 629.14) rotate(-90)" style="fill:#263238"></rect><rect x="309.57" y="333.8" width="29.59" height="1.57" transform="translate(-10.22 658.95) rotate(-90)" style="fill:#263238"></rect><rect x="291.22" y="349.96" width="1.49" height="2.76" style="fill:#263238"></rect><rect x="308.84" y="349.96" width="1.49" height="2.76" style="fill:#263238"></rect><rect x="326.15" y="349.96" width="1.49" height="2.76" style="fill:#263238"></rect><rect x="288.29" y="326.77" width="6.27" height="1.54" style="fill:#263238"></rect><rect x="324.12" y="326.77" width="5.33" height="1.54" style="fill:#263238"></rect><rect x="324.12" y="341.06" width="5.33" height="1.54" style="fill:#263238"></rect><rect x="288.29" y="341.06" width="6.27" height="1.54" style="fill:#263238"></rect><path d="M309.42,350.62h0a1,1,0,0,1-.71-.3l-14.59-15a1,1,0,0,1,0-1.4l14.59-14.79a1,1,0,0,1,.71-.3h0a1,1,0,0,1,.72.3l14.94,15.32a.94.94,0,0,1,.28.71,1,1,0,0,1-.3.7l-14.94,14.52A1,1,0,0,1,309.42,350.62Zm-13.19-16,13.21,13.62L323,335.09l-13.53-13.87Z" style="fill:#263238"></path><path d="M314.37,340.73h-9.88a1,1,0,0,1-1-1v-9.88a1,1,0,0,1,1-1h9.88a1,1,0,0,1,1,1v9.88A1,1,0,0,1,314.37,340.73Zm-8.88-2h7.88v-7.88h-7.88Z" style="fill:#263238"></path><path d="M314.37,330.85a1,1,0,0,1-.75-.34,1,1,0,0,1,.09-1.41l2.61-2.31a1,1,0,0,1,1.33,1.5L315,330.6A1,1,0,0,1,314.37,330.85Z" style="fill:#263238"></path><path d="M304.49,330.85a1,1,0,0,1-.75-.34l-2.34-2.69a1,1,0,0,1,1.51-1.32l2.34,2.7a1,1,0,0,1-.1,1.41A1,1,0,0,1,304.49,330.85Z" style="fill:#263238"></path><path d="M302.2,343.18a1,1,0,0,1-.69-.27,1,1,0,0,1,0-1.42l2.3-2.45a1,1,0,1,1,1.45,1.37l-2.29,2.45A1,1,0,0,1,302.2,343.18Z" style="fill:#263238"></path><path d="M317,343.27a1,1,0,0,1-.69-.28l-2.62-2.55a1,1,0,1,1,1.4-1.43l2.61,2.55a1,1,0,0,1-.7,1.71Z" style="fill:#263238"></path><rect x="329.41" y="319.01" width="42.12" height="1.57" style="fill:#263238"></rect><rect x="329.55" y="348.84" width="41.97" height="1.57" style="fill:#263238"></rect><rect x="320.88" y="333.8" width="29.59" height="1.57" transform="translate(1.09 670.26) rotate(-90)" style="fill:#263238"></rect><rect x="350.69" y="333.8" width="29.59" height="1.57" transform="translate(30.89 700.07) rotate(-90)" style="fill:#263238"></rect><rect x="332.33" y="349.96" width="1.49" height="2.76" style="fill:#263238"></rect><rect x="349.96" y="349.96" width="1.49" height="2.76" style="fill:#263238"></rect><rect x="367.27" y="349.96" width="1.49" height="2.76" style="fill:#263238"></rect><rect x="329.41" y="326.77" width="6.27" height="1.54" style="fill:#263238"></rect><rect x="365.24" y="326.77" width="5.33" height="1.54" style="fill:#263238"></rect><rect x="365.24" y="341.06" width="5.33" height="1.54" style="fill:#263238"></rect><rect x="329.41" y="341.06" width="6.27" height="1.54" style="fill:#263238"></rect><path d="M350.54,350.62h0a1,1,0,0,1-.7-.3l-14.59-15a1,1,0,0,1,0-1.4l14.58-14.79a1,1,0,0,1,.72-.3h0a1,1,0,0,1,.71.3l14.95,15.32a1,1,0,0,1,.28.71,1,1,0,0,1-.3.7l-14.95,14.52A1,1,0,0,1,350.54,350.62Zm-13.19-16,13.21,13.62,13.5-13.12-13.53-13.87Z" style="fill:#263238"></path><path d="M355.48,340.73h-9.87a1,1,0,0,1-1-1v-9.88a1,1,0,0,1,1-1h9.87a1,1,0,0,1,1,1v9.88A1,1,0,0,1,355.48,340.73Zm-8.87-2h7.87v-7.88h-7.87Z" style="fill:#263238"></path><path d="M355.48,330.85a1,1,0,0,1-.75-.34,1,1,0,0,1,.09-1.41l2.62-2.31a1,1,0,0,1,1.41.09,1,1,0,0,1-.09,1.41l-2.61,2.31A1,1,0,0,1,355.48,330.85Z" style="fill:#263238"></path><path d="M345.61,330.85a1,1,0,0,1-.75-.34l-2.35-2.69A1,1,0,0,1,344,326.5l2.35,2.7a1,1,0,0,1-.1,1.41A1,1,0,0,1,345.61,330.85Z" style="fill:#263238"></path><path d="M343.31,343.18a1,1,0,0,1-.68-.27,1,1,0,0,1-.05-1.42l2.3-2.45a1,1,0,0,1,1.46,1.37l-2.3,2.45A1,1,0,0,1,343.31,343.18Z" style="fill:#263238"></path><path d="M358.1,343.27a1,1,0,0,1-.7-.28l-2.61-2.55a1,1,0,1,1,1.39-1.43l2.62,2.55a1,1,0,0,1-.7,1.71Z" style="fill:#263238"></path><path d="M445.16,181.69c0,.15-60.51.26-135.13.26s-135.15-.11-135.15-.26,60.5-.26,135.15-.26S445.16,181.55,445.16,181.69Z" style="fill:#263238"></path><path d="M440.69,188.91c0,.14-58.15.26-129.87.26s-129.88-.12-129.88-.26,58.14-.26,129.88-.26S440.69,188.76,440.69,188.91Z" style="fill:#263238"></path><g style="opacity:0.4"><path d="M228.35,232V358h9.36V243.25c47.36-14.72,95.14-14.6,143.33,0V358h7.19V232C334.47,215.92,281.17,215.78,228.35,232Z" style="fill:#fff"></path></g><rect x="181.34" y="353" width="255.96" height="8.46" rx="4.23" style="fill:#2F80EC"></rect><g style="opacity:0.1"><path d="M395.59,235a113.78,113.78,0,0,0-43.94-19.89c-31.77-7.09-65.6-7.83-96.39,2.71s-58.14,33.33-69.74,63.65l0,71.44H228.5v-121c53-16.17,105.78-16,159.73.07v121h43.7V278.6C425.75,263.5,411.68,247.11,395.59,235Z" style="fill:#fff"></path></g><g style="opacity:0.4"><path d="M433.74,211.15H184.22a3.77,3.77,0,0,1-3.78-3.77h0a3.77,3.77,0,0,1,3.78-3.77H433.74a3.77,3.77,0,0,1,3.77,3.77h0A3.77,3.77,0,0,1,433.74,211.15Z" style="fill:#fff"></path></g><path d="M433.2,211.15c0,.15-55.78.26-124.58.26S184,211.3,184,211.15s55.77-.26,124.58-.26S433.2,211,433.2,211.15Z" style="fill:#263238"></path><g style="opacity:0.30000000000000004"><path d="M185.31,217.8v-6.65H431.93v5.23s-72.33-4.55-80.86-4.27-98.7,0-101.55.14S185.31,217.8,185.31,217.8Z"></path></g><g style="opacity:0.30000000000000004"><rect x="185.31" y="188.91" width="246.62" height="8.09"></rect></g><path d="M353.46,187.19c0,.15-20.59.26-46,.26s-46-.11-46-.26,20.59-.26,46-.26S353.46,187.05,353.46,187.19Z" style="fill:#fff"></path><path d="M369.47,209.06c0,.14-28.4.26-63.43.26s-63.43-.12-63.43-.26S271,208.8,306,208.8,369.47,208.91,369.47,209.06Z" style="fill:#fff"></path><path d="M346.63,231.81a4.76,4.76,0,0,1-.8-.07l-2.3-.28c-2-.27-4.89-.61-8.47-1s-7.84-.71-12.58-1-10-.38-15.46-.35-10.71.29-15.45.6-9,.75-12.57,1.18-6.46.81-8.45,1.11l-2.29.32a4.4,4.4,0,0,1-.81.08,4.47,4.47,0,0,1,.79-.18l2.28-.42c2-.36,4.86-.81,8.43-1.28s7.84-.92,12.58-1.29,10-.58,15.49-.64,10.73.13,15.48.39,9,.67,12.6,1.09,6.47.81,8.45,1.14l2.29.38A3.83,3.83,0,0,1,346.63,231.81Z" style="fill:#fff"></path><path d="M333.8,247.32a3,3,0,0,1-.56,0l-1.6-.23c-1.38-.22-3.39-.5-5.88-.81a159.53,159.53,0,0,0-39.06,0c-2.49.3-4.5.58-5.88.8l-1.6.22a2.21,2.21,0,0,1-.57,0,2.28,2.28,0,0,1,.55-.15l1.58-.32c1.38-.28,3.38-.62,5.87-1a144.46,144.46,0,0,1,19.58-1.33,141.72,141.72,0,0,1,19.58,1.38c2.48.35,4.49.69,5.87,1l1.58.33A1.92,1.92,0,0,1,333.8,247.32Z" style="fill:#fff"></path><path d="M365.89,318.73c0,.15-26.53.26-59.25.26s-59.27-.11-59.27-.26,26.53-.26,59.27-.26S365.89,318.59,365.89,318.73Z" style="fill:#fff"></path><g style="clip-path:url(#freepik--clip-path-3--inject-18)"><g style="opacity:0.30000000000000004"><path d="M305.12,278.21a16.11,16.11,0,0,1-.71-10.12c.86-3.33,4.11-4.67,4.85-10.55,1.45,3.14,2.35,8.88,1.31,12.18a9,9,0,0,0,4.21-8.1A13.77,13.77,0,0,0,311,253c-.85-.92-2.11-1.81-3.24-1.29a3.16,3.16,0,0,0-1.37,1.72,44.82,44.82,0,0,0-3.57,23.64"></path></g></g><polygon points="402.94 158.75 396.49 174.07 400.64 174.07 403.51 165.81 402.94 158.75" style="fill:#455a64"></polygon><polygon points="422.74 144.95 425.26 174.21 404.18 174.13 401.84 144.95 422.74 144.95" style="fill:#455a64"></polygon><polygon points="420.68 147.23 422.86 171.4 407.04 171.61 404.91 147.09 420.68 147.23" style="fill:#fafafa"></polygon><polygon points="417.32 150.58 418.56 167.21 410.13 167.21 408.64 150.58 417.32 150.58" style="fill:#263238"></polygon><path d="M434,353c0,.14-50.14.26-112,.26s-112-.12-112-.26,50.14-.26,112-.26S434,352.85,434,353Z" style="fill:#263238"></path><path d="M402.53,377.42c0,2.88,0,5.21-.11,5.21s-.12-2.33-.12-5.21.05-5.21.12-5.21S402.53,374.55,402.53,377.42Z" style="fill:#ebebeb"></path></g><g id="freepik--Plant--inject-18"><path d="M453.67,336.63s-3.61-24.79-3.31-39.22,0-30.65,0-30.65H452s-1.13,28.63.1,45.9,4.44,24,4.44,24h-2.88" style="fill:#263238"></path><path d="M464.41,238.86a4.35,4.35,0,0,0-1.51-2.22,4.21,4.21,0,0,0-3.62,0c-5,1.77-9.47,11.13-11.5,16.06l6.67,22.46C466.48,264,468.56,249.38,464.41,238.86Z" style="fill:#455a64"></path><path d="M462.51,237.55a1.72,1.72,0,0,1-.1.29l-.33.82c-.29.71-.7,1.73-1.19,3-1,2.55-2.23,6.12-3.35,10.14s-1.88,7.72-2.35,10.41c-.24,1.34-.42,2.44-.53,3.19-.06.36-.11.64-.14.87a1.48,1.48,0,0,1-.07.3,1,1,0,0,1,0-.3c0-.23.05-.53.09-.88.08-.76.23-1.86.45-3.21a94,94,0,0,1,2.28-10.46,96.2,96.2,0,0,1,3.43-10.13c.52-1.27,1-2.29,1.28-3l.37-.8C462.45,237.64,462.5,237.54,462.51,237.55Z" style="fill:#263238"></path><path d="M451.48,280.58a20.36,20.36,0,0,1-10.27-17.08c-.24-5,1.29-9.88,3-14.56a1.84,1.84,0,0,1,.7-1.05,1.79,1.79,0,0,1,1.71.26c4.54,2.59,7.29,7.52,8.75,12.53a25.23,25.23,0,0,1,1,10.31,17.1,17.1,0,0,1-4.95,9.59" style="fill:#455a64"></path><path d="M451.48,280.58a1.85,1.85,0,0,1,0-.3c0-.23,0-.52,0-.87,0-.74,0-1.83-.09-3.16a86.49,86.49,0,0,0-1.16-10.38c-.69-4-1.53-7.63-2.15-10.23-.31-1.27-.56-2.32-.74-3.08-.08-.34-.15-.62-.2-.84s-.05-.3-.05-.3a1,1,0,0,1,.11.28c.06.22.14.49.24.83.21.72.49,1.77.82,3.06.67,2.6,1.55,6.2,2.24,10.23a76.07,76.07,0,0,1,1.08,10.42c0,1.34,0,2.43,0,3.17,0,.35,0,.64,0,.87A1.57,1.57,0,0,1,451.48,280.58Z" style="fill:#263238"></path><g style="opacity:0.30000000000000004"><path d="M451.48,280.58a20.36,20.36,0,0,1-10.27-17.08c-.24-5,1.29-9.88,3-14.56a1.84,1.84,0,0,1,.7-1.05,1.79,1.79,0,0,1,1.71.26c4.54,2.59,7.29,7.52,8.75,12.53a25.23,25.23,0,0,1,1,10.31,17.1,17.1,0,0,1-4.95,9.59"></path></g><path d="M458.53,318.52c6.15,1.35,11.22,5.69,17.15,7.79,3.93,1.4,8.37,1.89,11.5,4.64-.75-1.9-2.53-3.17-4.27-4.25a77,77,0,0,0-15.54-7.42c-2.79-1-5.82-1.77-8.66-1" style="fill:#455a64"></path><path d="M449.64,324c-7.7-.13-15.81-6.69-23.48-7.08,8-2.59,19.51-.47,23.48,7.08" style="fill:#455a64"></path><path d="M452.65,305.52a25.07,25.07,0,0,1,12.32-.84A75.54,75.54,0,0,1,477,308c-.4-2.67-2.56-4.68-4.6-6.46a31.88,31.88,0,0,0-4.82-3.71,10.79,10.79,0,0,0-5.79-1.64,9.2,9.2,0,0,0-6.39,3.22,10.65,10.65,0,0,0-2.74,6.16" style="fill:#455a64"></path><path d="M436.84,297c-4.84-4.14-12.19-3.74-18.56-3.6a151.3,151.3,0,0,1,28.79,17.95C447.33,306.86,443,302.24,436.84,297Z" style="fill:#455a64"></path><g style="opacity:0.30000000000000004"><path d="M436.84,297c-4.84-4.14-12.19-3.74-18.56-3.6a151.3,151.3,0,0,1,28.79,17.95C447.33,306.86,443,302.24,436.84,297Z"></path></g><path d="M454.83,291.3a54.82,54.82,0,0,1,7.46-4.33c2.55-1.16,4.93-3,7.4-4.34,3.19-1.73,6-4.14,8.89-6.28s6.16-4.09,9.75-4.66a19.19,19.19,0,0,0-8.87.52,56.58,56.58,0,0,0-8.35,3.25c-3.78,1.7-7.63,3.44-10.72,6.21s-5.88,5.5-5.56,9.63" style="fill:#455a64"></path><path d="M475.54,324a1.75,1.75,0,0,1-.24-.11l-.68-.35c-.58-.31-1.41-.76-2.46-1.29-.52-.28-1.09-.56-1.72-.85s-1.28-.61-2-.92a29.35,29.35,0,0,0-4.75-1.65,10.14,10.14,0,0,0-4.94-.13,13.16,13.16,0,0,0-2.09.63,10.25,10.25,0,0,0-1.69.86,10.56,10.56,0,0,0-2.12,1.76c-.45.48-.67.77-.69.75a1,1,0,0,1,.14-.22,5.78,5.78,0,0,1,.47-.6,9.91,9.91,0,0,1,2.09-1.85,10.54,10.54,0,0,1,1.71-.91,12.84,12.84,0,0,1,2.12-.66,10.28,10.28,0,0,1,5.07.1,27.84,27.84,0,0,1,4.78,1.69c.71.31,1.38.62,2,.94s1.2.6,1.71.89c1,.55,1.86,1,2.43,1.37l.64.39C475.47,323.93,475.55,324,475.54,324Z" style="fill:#263238"></path><path d="M443.9,320.18a1.57,1.57,0,0,1,.48.14,9.27,9.27,0,0,1,1.25.55,15.26,15.26,0,0,1,3.68,2.6,15.07,15.07,0,0,1,2.76,3.58,10.93,10.93,0,0,1,.6,1.23,2.11,2.11,0,0,1,.16.48c-.05,0-.34-.64-.93-1.61a17,17,0,0,0-6.36-6.11C444.54,320.48,443.88,320.22,443.9,320.18Z" style="fill:#263238"></path><path d="M426.86,296.63a1.31,1.31,0,0,1,.33.1l.92.32,1.46.54c.56.21,1.18.52,1.88.83a44.8,44.8,0,0,1,10,6.39,49.84,49.84,0,0,1,4.67,4.61,49.19,49.19,0,0,1,3.32,4.2c.88,1.25,1.55,2.28,2,3,.22.34.4.61.53.83a1.73,1.73,0,0,1,.17.29s-.08-.08-.21-.26-.33-.45-.57-.8c-.49-.7-1.18-1.72-2.08-2.95s-2-2.64-3.35-4.15A50.69,50.69,0,0,0,441.3,305a47,47,0,0,0-9.93-6.42c-.69-.32-1.3-.64-1.86-.87l-1.44-.58-.9-.37A1.24,1.24,0,0,1,426.86,296.63Z" style="fill:#263238"></path><path d="M464.21,301.19a2.52,2.52,0,0,1-.62-.08l-.7-.13c-.28-.05-.6-.05-.95-.09a9.53,9.53,0,0,0-7.7,2.83,10.44,10.44,0,0,0-1.55,1.92,16.26,16.26,0,0,0-1.06,2,2.39,2.39,0,0,1,.16-.6,8.17,8.17,0,0,1,.74-1.53,10.33,10.33,0,0,1,1.53-2,9.36,9.36,0,0,1,7.9-2.84,7.54,7.54,0,0,1,1,.13l.71.18A2.88,2.88,0,0,1,464.21,301.19Z" style="fill:#263238"></path><path d="M472,277.18l-.29.18-.86.46c-.75.4-1.82,1-3.13,1.77s-2.83,1.74-4.46,2.9a37.06,37.06,0,0,0-5,4.18,12.25,12.25,0,0,0-2,2.63c-.51,1-1,1.91-1.43,2.81a49.47,49.47,0,0,0-2.14,4.87,29.08,29.08,0,0,0-1,3.43c-.2.82-.27,1.29-.3,1.28a1.47,1.47,0,0,1,0-.34c0-.22.08-.55.16-1a24.27,24.27,0,0,1,1-3.48,46.18,46.18,0,0,1,2.09-4.91c.44-.91.92-1.85,1.42-2.82a12.71,12.71,0,0,1,2.08-2.71,37.34,37.34,0,0,1,5-4.19c1.65-1.15,3.2-2.1,4.51-2.86s2.42-1.32,3.18-1.69l.88-.42A1.29,1.29,0,0,1,472,277.18Z" style="fill:#263238"></path><path d="M450.35,300.5a3.2,3.2,0,0,1-.15-.65c-.09-.48-.2-1.07-.34-1.78a50,50,0,0,0-1.45-5.78,50.58,50.58,0,0,0-2.2-5.54l-.75-1.65a2.66,2.66,0,0,1-.25-.62,2.51,2.51,0,0,1,.34.57c.21.38.49.93.83,1.61a41.27,41.27,0,0,1,2.29,5.54,39.66,39.66,0,0,1,1.38,5.83c.12.76.21,1.37.26,1.8A3.36,3.36,0,0,1,450.35,300.5Z" style="fill:#263238"></path><path d="M449.8,283a21.06,21.06,0,0,0-2.51-8.31,27.46,27.46,0,0,0-18.6-13.88l17.22,25.68,2.22,4.58A13.19,13.19,0,0,0,449.8,283Z" style="fill:#455a64"></path><rect x="434.45" y="333.57" width="40.05" height="7.1" style="fill:#2F80EC"></rect><polygon points="437.44 339.26 440.85 361.28 467.44 361.28 471.51 339.26 437.44 339.26" style="fill:#2F80EC"></polygon><path d="M474.48,340.67c0,.08-9,.15-20.18.15s-20.17-.07-20.17-.15,9-.14,20.17-.14S474.48,340.6,474.48,340.67Z" style="fill:#263238"></path></g><g id="freepik--Character--inject-18"><path d="M176.73,433.15l57.43-8.86,3-67c.3-6.54-3.59-9.23-9.67-10.95-24-6.8-82.24-26.4-92.31-29-10.93-2.84-82.06-14.41-102.47-16.85a5.8,5.8,0,0,0-5.16,1.72L69.26,423.93Z" style="fill:#2F80EC"></path><g style="opacity:0.30000000000000004"><path d="M218.93,388.7s.75-20.88.66-25.32c-.05-2.54-.28-5.28-1.86-7.22s-4.2-2.69-6.5-3.72a139.7,139.7,0,0,0-13.21-5L193.21,338,191,371Z"></path></g><g style="opacity:0.30000000000000004"><polygon points="122.1 328 160.17 340.11 166.45 332.99 118.82 319.13 122.1 328"></polygon></g><path d="M236.74,352.94a16.19,16.19,0,0,1-2.74.51l-6.62,1.05-6.61,1.17a16.64,16.64,0,0,1-2.75.42,12.94,12.94,0,0,1,2.68-.78c1.67-.4,4-.88,6.59-1.32s5-.73,6.67-.9A13.79,13.79,0,0,1,236.74,352.94Z" style="fill:#263238"></path><path d="M214.94,410.31a1.81,1.81,0,0,1-.55.1l-1.58.19-5.81.58-19.2,1.71c-1.88.15-3.69.34-5.49.45a6.27,6.27,0,0,1-2.67-.39,3.38,3.38,0,0,1-1.81-1.89,9.53,9.53,0,0,1-.58-2.37c-.12-.76-.23-1.5-.34-2.22-.22-1.42-.42-2.76-.61-4l-.85-5.78c-.08-.64-.15-1.16-.2-1.58a3.29,3.29,0,0,1,0-.56,2.06,2.06,0,0,1,.14.54l.3,1.56c.25,1.43.6,3.38,1,5.76.21,1.22.43,2.55.67,4,.12.71.25,1.45.37,2.21a9.65,9.65,0,0,0,.57,2.25,2.87,2.87,0,0,0,1.57,1.62,5.68,5.68,0,0,0,2.46.34c1.74-.12,3.59-.31,5.46-.46L207,410.81l5.82-.41,1.59-.09Z" style="fill:#263238"></path><polygon points="56.72 469.05 69.16 438.47 81.87 438.47 64.19 469.05 56.72 469.05" style="fill:#ae7461"></polygon><polygon points="162.89 469.05 162.84 432.99 175.55 432.99 170.36 469.05 162.89 469.05" style="fill:#ae7461"></polygon><polygon points="219.97 462.07 219.92 426.01 232.63 426.01 227.44 462.07 219.97 462.07" style="fill:#ae7461"></polygon><path d="M114.88,248.37c-2.07-1.31-4.71-1.69-6.38-3.52s-1.9-4.69-2.19-7.26a21.05,21.05,0,0,0-2.26-8.06,9.11,9.11,0,0,0-6.36-4.77c-2-.27-4.1.35-6-.34-2.17-.79-3.46-3-5.06-4.74a13.18,13.18,0,0,0-11.64-4,9.56,9.56,0,0,0-7.08,4.86c-1.35,2.72-.75,6.52,1.73,8.16l-8,17A20.44,20.44,0,0,0,61,261.8a19.26,19.26,0,0,0,11.23,11.1c2.28.82,4.81,1.23,6.61,2.9,1.37,1.28,2.12,3.11,3.2,4.67s2.79,2.95,4.6,2.58c1.38-.28,2.48-1.53,3.88-1.62s2.6,1,3.87,1.61a7.18,7.18,0,0,0,9-2.42c1-1.46,1.55-3.38,3.08-4.18s3.39-.1,5.11-.21c3.4-.2,6.07-4.23,5-7.62-.4-1.31-1.26-2.54-1.17-3.92s1.27-2.65,2.09-3.9C120.05,256.87,118.78,250.81,114.88,248.37Z" style="fill:#263238"></path><path d="M95.84,262.43a5.17,5.17,0,0,1,2-1.38H97.7a3,3,0,0,1,.43-.07,1.91,1.91,0,0,1,1.57.2h0a3.8,3.8,0,0,1,2,1.85,4.75,4.75,0,0,1-.52,4.72,3.63,3.63,0,0,1-3.65,1.57A3.79,3.79,0,0,1,95,266.54,4.5,4.5,0,0,1,95.84,262.43Z" style="fill:#455a64"></path><path d="M63.55,286.79,63,240.71c-.1-2.22-1.08-5.33,1-5.62l21.6-6.38c7-1,11.83,7.83,12.47,15.11.71,8.08,1.27,18,.51,24.05-1.52,12.2-11.11,14.05-11.11,14.05s-.07,3.07,0,7.48l2,16.18Z" style="fill:#ffbf9d"></path><path d="M95.53,254.58a1.54,1.54,0,0,1-1.4,1.61,1.45,1.45,0,0,1-1.58-1.36,1.54,1.54,0,0,1,1.4-1.61A1.45,1.45,0,0,1,95.53,254.58Z" style="fill:#263238"></path><path d="M96.22,249c-.18.21-1.34-.63-3-.58s-2.76.93-2.94.73.09-.46.59-.87a4.07,4.07,0,0,1,2.35-.83,3.84,3.84,0,0,1,2.35.72C96.13,248.58,96.31,248.94,96.22,249Z" style="fill:#263238"></path><path d="M81.51,255a1.53,1.53,0,0,1-1.39,1.61,1.44,1.44,0,0,1-1.58-1.36,1.53,1.53,0,0,1,1.39-1.61A1.45,1.45,0,0,1,81.51,255Z" style="fill:#263238"></path><path d="M80.41,249.81c-.18.21-1.34-.63-2.94-.58s-2.77.93-3,.73.09-.46.6-.87a4,4,0,0,1,2.35-.83,3.86,3.86,0,0,1,2.35.72C80.32,249.36,80.5,249.72,80.41,249.81Z" style="fill:#263238"></path><path d="M86.59,262.07a10.56,10.56,0,0,1,2.6-.56c.41-.06.79-.16.86-.45a2.35,2.35,0,0,0-.31-1.26l-1.31-3.23c-1.81-4.59-3.14-8.37-3-8.44s1.8,3.58,3.61,8.18c.44,1.13.85,2.21,1.25,3.24a2.57,2.57,0,0,1,.26,1.67,1,1,0,0,1-.66.65,2.78,2.78,0,0,1-.69.12A9.72,9.72,0,0,1,86.59,262.07Z" style="fill:#263238"></path><path d="M87.54,281.92a27.05,27.05,0,0,1-15-3.92s3.38,9,15,7.56Z" style="fill:#ff9a6c"></path><path d="M83.78,264.05a2.56,2.56,0,0,0-2.08,1.26,2.69,2.69,0,0,0,.11,2.71,2.42,2.42,0,0,0,2.64.9,2.86,2.86,0,0,0,.41-.15c2.39-1,1.55-4.87-1-4.72Z" style="fill:#ff9a6c"></path><path d="M81.89,263.37c.26,0,.31,1.8,1.84,3.05s3.38,1,3.4,1.24-.4.37-1.19.42a4.22,4.22,0,0,1-2.83-.94,4,4,0,0,1-1.44-2.56C81.58,263.82,81.77,263.37,81.89,263.37Z" style="fill:#263238"></path><path d="M80.43,244.07c-.15.46-1.76.29-3.64.58s-3.4.88-3.66.48c-.11-.2.14-.63.74-1.09A5.92,5.92,0,0,1,76.56,243a5.84,5.84,0,0,1,2.87.26C80.13,243.5,80.49,243.85,80.43,244.07Z" style="fill:#263238"></path><path d="M95.49,242.36c-.27.39-1.39,0-2.72,0s-2.46.33-2.73-.06c-.12-.19,0-.58.53-.95a3.6,3.6,0,0,1,2.2-.69,3.65,3.65,0,0,1,2.2.7C95.45,241.78,95.61,242.17,95.49,242.36Z" style="fill:#263238"></path><path d="M106,241.27a8.36,8.36,0,0,0-3.08-4.6,28.41,28.41,0,0,1-2.59-1.58c-1.69-1.41-2.08-3.88-3.12-5.86a8.81,8.81,0,0,0-6.71-4.64c-2.31-.24-4.69.48-6.94-.11-1.66-.44-3.12-1.56-4.8-1.9-3.29-.65-6.34,1.81-8.72,4.25,0,2.45,1.86,4.09,3.67,5.66a7.89,7.89,0,0,0,6.6,1.82c1.79-.34,3.76-1.29,5.31-.29s1.7,3.61,3.15,4.92c2.07,1.87,5.36.12,8,.93,2,.63,3.3,2.65,4.65,4.35s3.36,3.32,5.39,2.69A26,26,0,0,0,106,241.27Z" style="fill:#263238"></path><path d="M81.34,230.91c-1.47-.44-4.48-1.43-5.27-2.76-1.72-2.89-4.74-4.86-7.83-4.69a7.54,7.54,0,0,0-6.69,6.12,10.65,10.65,0,0,0-9.18,6.16,11.74,11.74,0,0,0-.58,1.42,8.79,8.79,0,0,0-.54,7.11c.51,1.39,1.37,2.93.69,4.23s-2.46,1.37-3.83,1.86a5.66,5.66,0,0,0-3.39,6.28,7,7,0,0,1,.42,2.76,6.06,6.06,0,0,1-1.58,2.39,7.39,7.39,0,0,0-1.18,6.88,6.92,6.92,0,0,0,5.11,4.51,8.39,8.39,0,0,1,3.09.74c1,.66,1.5,2,2.23,3A5.66,5.66,0,0,0,59.09,279a5.05,5.05,0,0,0,1.26-.66A3.14,3.14,0,0,0,63.48,280l.12-25.6a2.06,2.06,0,0,0,1.49,1.22c4,.93,4.52-7.54,3.64-9.84a23.39,23.39,0,0,0,4-4.34,17.83,17.83,0,0,0,1.82-8.31C75.93,233.19,82,231.1,81.34,230.91Z" style="fill:#263238"></path><path d="M64.69,256.46c-.13-2.61-3.18-3.16-5.35-1.86-1.19.72-2.1,2.16-2,4.92.29,7.37,7.33,5.55,7.34,5.34S64.83,259.51,64.69,256.46Z" style="fill:#ffbf9d"></path><path d="M62.42,262.16s-.12.09-.33.2a1.16,1.16,0,0,1-.92.06c-.76-.25-1.43-1.46-1.52-2.79a4.24,4.24,0,0,1,.27-1.85,1.48,1.48,0,0,1,.89-1,.62.62,0,0,1,.74.32c.1.2.06.35.1.36s.15-.13.08-.43a.91.91,0,0,0-.3-.45.88.88,0,0,0-.69-.16,1.79,1.79,0,0,0-1.24,1.2,4.5,4.5,0,0,0-.34,2.07c.1,1.49.88,2.85,1.92,3.11a1.31,1.31,0,0,0,1.12-.24C62.41,262.34,62.44,262.17,62.42,262.16Z" style="fill:#ff9a6c"></path><path d="M65.65,265.5a3.47,3.47,0,0,0-1.87-1.86,3.06,3.06,0,0,0-1.72-.19l-.28.09a5.1,5.1,0,0,0-2,1.38A4.48,4.48,0,0,0,59,269a3.81,3.81,0,0,0,2.52,2.77,3.61,3.61,0,0,0,3.65-1.57A4.72,4.72,0,0,0,65.65,265.5Z" style="fill:#455a64"></path><path d="M228.75,414.09a3.7,3.7,0,0,1,.12-.77c.11-.55.25-1.27.42-2.18a45.86,45.86,0,0,0,1-8.08,20.82,20.82,0,0,0-.65-5.54,15.42,15.42,0,0,0-2.83-5.67,9.86,9.86,0,0,0-5.8-3.63c-2.4-.48-5-.08-7.57.25l-26.78,3.39-8.12,1-2.22.23a4,4,0,0,1-.77.05,4,4,0,0,1,.76-.15l2.2-.34,8.1-1.13L213.35,388a24.31,24.31,0,0,1,7.74-.23,10.33,10.33,0,0,1,6.07,3.83,15.78,15.78,0,0,1,2.88,5.86,20.36,20.36,0,0,1,.59,5.65,41.59,41.59,0,0,1-1.14,8.12c-.21.94-.39,1.67-.52,2.16A4.41,4.41,0,0,1,228.75,414.09Z" style="fill:#263238"></path><path d="M54.88,284.28l8.28.59s-1.73-4.45.48-3.54c7.18,3,27.36.09,27.36,5.32,0,1.57-1.36,2.24-1.73,4.71,0,0,21.79,8.79,25.89,18.62s12,30.49,10.25,33.8-38.48,32.64-43.52,30.75-9.76-15.29-9.76-15.29L56.81,307.83Z" style="fill:#455a64"></path><path d="M149.78,284.47l-23.28-.19,1.64,12.82s1.47,6.32,5,6.35l10.09.08a10.8,10.8,0,0,0,5-6.87Z" style="fill:#e0e0e0"></path><path d="M149.78,284.47a2,2,0,0,0-.08.4c0,.29-.1.67-.17,1.14-.14,1-.35,2.46-.6,4.26s-.57,4-.92,6.52a10.52,10.52,0,0,1-4.86,6.58l.09,0-8.07-.08c-.71,0-1.44,0-2.15,0a2.94,2.94,0,0,1-1.86-.81,9.2,9.2,0,0,1-2.31-3.71c-.2-.55-.38-1.11-.52-1.65v0c-.58-4.53-1.14-8.85-1.65-12.82l-.19.21,16.71,0H148l1.29,0h.47a2.24,2.24,0,0,0-.42,0l-1.26,0-4.77-.08-16.83-.23h-.21l0,.21c.51,4,1,8.29,1.63,12.82h0a16.78,16.78,0,0,0,.54,1.7,9.59,9.59,0,0,0,2.42,3.88,3.44,3.44,0,0,0,2.1.9c.74,0,1.45,0,2.17,0l8.06,0h.05l0,0a10.7,10.7,0,0,0,5-6.84c.36-2.55.6-4.79.83-6.63s.38-3.24.5-4.26l.12-1.11C149.77,284.59,149.78,284.46,149.78,284.47Z" style="fill:#263238"></path><path d="M128.19,290.9l-.34-.08s-.22-.05,0,0-.06,0-.1,0a6.42,6.42,0,0,0-.76,0c.25,0,0,0-.09,0l-.4.09-.33.11c-.15.05,0,0,.06,0l-.21.1a5.32,5.32,0,0,0-.65.39c-.13.09,0,0,0,0l-.13.12a3.83,3.83,0,0,0-.29.28c-.07.07-.22.27-.08.07-.08.12-.16.23-.23.35l-.17.31c-.08.13,0,0,0-.06s0,.15-.08.22-.08.27-.11.4-.08.39,0,.22,0,.18,0,.23a2.94,2.94,0,0,0,0,.42,1.93,1.93,0,0,0,0,.24s0,.22,0,.05,0,.17,0,.22l.09.35c0,.09.16.41,0,.17a5.44,5.44,0,0,0,.37.67l.1.15s-.14-.16,0-.05l.32.34s.29.24.17.15l.2.13.3.17.16.08c-.17-.09-.09,0,0,0a7.1,7.1,0,0,0,.79.22c.16,0-.06,0-.08,0l.23,0a3.62,3.62,0,0,0,.47,0h.28c-.18,0,0,0,0,0l.23,0,.45-.14s.2-.08,0,0,.16-.08.16-.08a1.4,1.4,0,0,1,1.39,2.44,6,6,0,0,1-7.85-2.22,6.21,6.21,0,0,1-.63-4.43,5.71,5.71,0,0,1,2.59-3.54,6,6,0,0,1,4.78-.68,1.42,1.42,0,0,1,1,1.73,1.43,1.43,0,0,1-1.74,1Z" style="fill:#e0e0e0"></path><path d="M128.19,290.9a.91.91,0,0,0,.48.09,1.5,1.5,0,0,0,1.19-.71,1.47,1.47,0,0,0-.52-2,3.55,3.55,0,0,0-1.36-.36,5.77,5.77,0,0,0-1.55,0,6.13,6.13,0,0,0-3.21,1.49,5.71,5.71,0,0,0-1.91,3.58,6.22,6.22,0,0,0,1,4.36,6,6,0,0,0,4.1,2.49,6.38,6.38,0,0,0,2.18-.05,7.14,7.14,0,0,0,1-.29l.49-.22a1.23,1.23,0,0,0,.47-.35,1.6,1.6,0,0,0-2-2.46l.27.17a.19.19,0,0,0-.16-.18c-.11,0-.12,0-.11,0h0l0,0-.07,0,0,0h0l0,0c0-.1-.15.3.07.33h.12l.08,0h0s0,0,.06,0c.09-.42-.29-.3-.17-.31h-.05l0,0-.06,0-.15,0a4.12,4.12,0,0,1-.58.15h0s0,0-.1.05-.07,0-.06.17.15.14.16.14h.19l.05,0,0,0a.2.2,0,0,0,0-.23c-.08-.12-.13-.09-.14-.1h-.17a1.41,1.41,0,0,1-.29,0,3.89,3.89,0,0,1-.59,0l0,.36h.16a.13.13,0,0,0,.11,0,.17.17,0,0,0,0-.2c0-.07,0,0,0-.06l-.08-.05h0l-.15-.05-.31-.08-.3-.08-.13,0h0l0,0c.08-.08,0,.34-.1.29h-.07l.07,0,.16-.31c-.14-.06-.27-.14-.4-.21l-.18-.12,0,0h0l-.11,0a.26.26,0,0,0-.1,0c-.08.08,0,.23,0,.23l0,0,0,0h0a.15.15,0,0,0,.11,0,.18.18,0,0,0,.13-.1c.06-.1-.07-.23,0-.19h0l0,0a1.83,1.83,0,0,1-.32-.3l-.15-.15,0,0,0,0,0,0h0s-.17,0-.21.1,0,.09,0,.11h0v0h0l.07.08.26-.2a9,9,0,0,1-.46-.79l-.28.13,0,.05v0l0,0v0s0,0,.12,0,.15-.17.15-.17v0l0-.11a1.46,1.46,0,0,1-.07-.19c0-.14-.07-.26-.1-.4l0-.11v0h0s0,0-.06-.09a.14.14,0,0,0-.14,0l-.06,0a.16.16,0,0,0,0,.12h0v.08h0c-.1.12.43.07.29,0v-.09a.25.25,0,0,0,0-.09c0-.14,0-.27,0-.4a2.42,2.42,0,0,1,0-.38v-.11s0-.06-.06-.12a.14.14,0,0,0-.15,0l0,.05,0,.05v.07h0v.05s0,0,0,.05,0,0,.08.06a.16.16,0,0,0,.17-.07,1.78,1.78,0,0,0,0-.22,5,5,0,0,1,.21-.69l-.25-.09,0,.05,0,0h0v0h0v0s0,.1.11.14.09,0,.1,0l0,0a.52.52,0,0,0,.07-.12l.12-.21L125,292l-.2-.14,0,.06,0,0h0a.14.14,0,0,0,0,.12c.13.16.22,0,.19,0l0,0L125,292l.15-.16c.1-.1.2-.2.31-.29l-.15-.16-.06,0,0,0h0s0,0,0,0c.25.33.1.08.15.16h0l.14-.08.25-.16a3.67,3.67,0,0,1,.47-.26l-.08-.17-.08,0H126s-.05.11,0,.14l0,0h.08l.17-.06a1.81,1.81,0,0,1,.31-.09l.28-.07.14,0h0c-.07,0,.12.08,0-.14H127v.14l.67,0a.66.66,0,0,1,.14,0h.12s0,0,0-.07,0,0,0,0h0l-.12,0h0s0,0,0,.05,0,0,0,0h.08a1.83,1.83,0,0,0,.38.06,1.14,1.14,0,0,0-.37-.13h-.07v0c0,.08,0,0,0,.05h0l.11,0h0s0,0,0,0,0,0,0,0,0,0,0,0H127v.14h.11c-.12-.22.06-.12,0-.14h-.17l-.3.06a1.92,1.92,0,0,0-.32.09l-.17.05h0c.06.24.06.15.08.16l.09,0-.08-.17a2.6,2.6,0,0,0-.49.26l-.27.15-.14.08h0l0,.08s0-.07,0,0,0,0,0,0l0,0,0,0,.08-.06-.15-.16a2.8,2.8,0,0,0-.32.29l-.17.16-.07.1h0s.05,0,.07,0a0,0,0,0,1,0,0s0,0,0,0,0,0,0,0l.05,0h0v0l0,0-.2-.14c-.08.13-.18.25-.26.39l-.12.21s-.07.07,0,.12a.24.24,0,0,1,.08.06l.08,0c.08,0,0,0,0,0h0v0l0-.07-.25-.09c-.09.23-.16.47-.23.72l0,.1v.06h.08s0,0,.06,0,0,0,0,0h.08l.06,0h0v0h0s-.06,0-.08,0,0,0,0,0-.06,0-.06,0h-.09v.07c0,.12,0,.27,0,.4s0,.28,0,.41,0,.09,0,.12v0h0s0,0,.12,0l.17,0h0v-.07h0l0,0s-.1,0-.08,0l-.16,0v0l0,.11a3.63,3.63,0,0,0,.1.42.94.94,0,0,0,.07.22l0,.09c.4-.16.26-.12.27-.14l0-.05-.28.13a8.34,8.34,0,0,0,.48.86l.26-.2-.07-.08-.06,0c0,.05-.07,0-.09.07a.21.21,0,0,1,0,.06l0,.05h0v0l0,0,.15.16a1.93,1.93,0,0,0,.33.31v0l0,0c.07-.06.08-.11.1-.1s0,0,0-.05l.06-.09h0l0,0h0s0,.06,0,.07,0,.09,0,.09,0-.06,0,0a.12.12,0,0,1-.07.11l0,0h0l0,0,0,0a1.32,1.32,0,0,0,.2.12l.41.23.16-.31-.08,0h-.12c-.14-.05-.18.37-.1.29l0,0,0,0,.16.06.32.09.31.09.16,0s0,.08.05-.15c0,0,0-.22,0-.19h0l-.1,0,0,.36a4.22,4.22,0,0,0,.62,0h.43s0,0,0,0a.63.63,0,0,0,0-.18c0-.05,0-.11,0-.16h-.11v0c0,.05,0,.09,0,.1s0,0,0,.05,0,0,0,0,0,.05,0,.08a.16.16,0,0,0,0,.09h0a4.44,4.44,0,0,0,.63-.15l.15,0,.09,0h0l0-.06a.3.3,0,0,1,0-.11l-.09-.17h0l-.06,0h0s0,0,0,.05,0,.12.05.15l.08.14h0l0,0,.07,0,0,0h0s0,0-.1,0a.19.19,0,0,1-.14-.1l0-.05s0,0,.14,0l.13.17a1.29,1.29,0,0,1,1.54.26,1.31,1.31,0,0,1,0,1.6,2.24,2.24,0,0,1-.81.46,6.32,6.32,0,0,1-1,.27,6.12,6.12,0,0,1-2,.05,5.57,5.57,0,0,1-3.82-2.32,5.9,5.9,0,0,1-1-4.1,5.37,5.37,0,0,1,1.77-3.37,5.86,5.86,0,0,1,3-1.46,5.24,5.24,0,0,1,2.76.25,1.34,1.34,0,0,1,.63.86,1.2,1.2,0,0,1-.14.9,1.42,1.42,0,0,1-1.05.71A3.7,3.7,0,0,1,128.19,290.9Z" style="fill:#263238"></path><path d="M76,331.7c.11-.25,19.3-28.45,19.3-28.45l11.4,9.13-15.8,33.47S77.62,341,75.92,332" style="fill:#ffbf9d"></path><path d="M112.17,285.12s-7.54,4.6-9.57,7.48-7.34,10.65-7.34,10.65l11.4,9.13,2.57-4.71s11.87-1.65,13.17-3.31.45-4.17.45-4.17,2-1.85,1.82-3.33c0,0,5-.57,5.21-2.1s-.43-3.23-2.31-3.35-6.12.2-4.74-.68,6.46-.08,6.87-2.27-.72-3.77-3-3.42-3.07.53-3.07.53,3.38-1.08,3.32-4.1a.76.76,0,0,0-1.06-.67,15.72,15.72,0,0,0-2.05,1C121,283.6,113.82,284.07,112.17,285.12Z" style="fill:#ffbf9d"></path><path d="M124.56,285.54a60.29,60.29,0,0,0-7.39,1.16,58.8,58.8,0,0,0-7,2.57A7.21,7.21,0,0,1,112,288.1a24.57,24.57,0,0,1,5-1.88,25.25,25.25,0,0,1,5.31-.79A7.64,7.64,0,0,1,124.56,285.54Z" style="fill:#ff9a6c"></path><path d="M124.67,296.62c0,.14-.52.27-1.16.39s-1.17.2-1.22.07.45-.43,1.13-.56S124.67,296.49,124.67,296.62Z" style="fill:#ff9a6c"></path><path d="M122.91,300.2c0,.13-.22.34-.6.46s-.71.12-.76,0,.23-.34.61-.46S122.87,300.07,122.91,300.2Z" style="fill:#ff9a6c"></path><path d="M94,303.88,69.56,334.35s-3-27.07-3-27.41L54.88,284.28s-16.54,0-15.72,16.89c.54,11,5.14,32.88,7,39.38S52.46,369.44,65,368.08s29.19-26.92,34.18-36.76,9.16-17.54,9.16-17.54Z" style="fill:#455a64"></path><path d="M104.44,322.23a2.57,2.57,0,0,1,.22-.59c.18-.42.43-1,.73-1.67.68-1.49,1.63-3.61,2.83-6.26l0,.19-14.39-9.83.31,0L81.82,319.25,69.67,334.11l-.36.44-.06-.56c-.83-8-1.54-14.7-2-19.51-.23-2.35-.41-4.22-.54-5.55,0-.61-.1-1.1-.13-1.48a2,2,0,0,1,0-.51,3.43,3.43,0,0,1,.09.51c0,.37.12.85.2,1.46.16,1.33.39,3.2.67,5.54l2.23,19.49-.41-.13,12.1-14.89,12.42-15.19.14-.17.17.13,14.31,10,.11.07-.06.12c-1.25,2.63-2.25,4.72-3,6.2-.33.69-.6,1.23-.8,1.64A5.18,5.18,0,0,1,104.44,322.23Z" style="fill:#263238"></path><polygon points="250.54 421.34 240.97 411.03 224.68 426.66 235.91 437.25 250.54 421.34" style="fill:#ffbf9d"></polygon><path d="M235.19,435.6l16.83,15,3,6a3.8,3.8,0,0,0,5.1,1.68l32.79-16.52a2.74,2.74,0,0,0-.71-5.15,9.32,9.32,0,0,0-1.75-.1c-3,.09-25.37-.39-25.37-.39l-14.61-14.84Z" style="fill:#e0e0e0"></path><path d="M235.19,435.6a1.54,1.54,0,0,1,.24-.25l.76-.74,3-2.84c2.65-2.51,6.46-6.12,11.2-10.59l.12-.13.13.13L265.27,436l-.16-.07,15.3.21,8.23.13c.7,0,1.39,0,2.11,0a5.84,5.84,0,0,1,2.2.31,3,3,0,0,1,1.5,4,3,3,0,0,1-1.37,1.46l-1.66.83-3.28,1.66-6.42,3.22-12.15,6.11-5.67,2.84L261.18,458c-.45.22-.86.46-1.36.66a4,4,0,0,1-1.52.24,4,4,0,0,1-2.7-1.17,4.45,4.45,0,0,1-.82-1.19c-.21-.41-.41-.82-.61-1.22l-2.32-4.64,0,.06L239.6,439.65l-3.3-3-.85-.78-.26-.26.32.26.9.78,3.39,3,12.34,10.88,0,0,0,0c.74,1.48,1.53,3,2.34,4.62a9.4,9.4,0,0,0,1.37,2.3,3.62,3.62,0,0,0,2.42,1,3.72,3.72,0,0,0,1.35-.23c.42-.16.87-.42,1.31-.64l2.72-1.37,5.66-2.86,12.13-6.13,6.42-3.24,3.28-1.65,1.65-.84a2.42,2.42,0,0,0,1.14-1.2,2.48,2.48,0,0,0-1.23-3.27,5.42,5.42,0,0,0-2-.27l-2.11,0-8.24-.13-15.31-.25H265l-.07-.07-14.57-14.89h.25l-11.25,10.37-3.07,2.81-.81.73Z" style="fill:#263238"></path><path d="M231.67,435.79l5.12,4.06a1.78,1.78,0,0,0,2.37-.15L253.51,425a1.78,1.78,0,0,0,.09-2.37l-3.7-4.42a1.78,1.78,0,0,0-2.62-.11L231.56,434A1.22,1.22,0,0,0,231.67,435.79Z" style="fill:#e0e0e0"></path><path d="M231.67,435.79a.92.92,0,0,1-.44-.51,1.29,1.29,0,0,1,0-.84,2.3,2.3,0,0,1,.66-.9l4.87-5.05,7.27-7.43,2.11-2.15,1.1-1.11a2,2,0,0,1,1.69-.48,2,2,0,0,1,.84.35,3.15,3.15,0,0,1,.6.62l1,1.26,2.15,2.56a3.52,3.52,0,0,1,.53.73,2,2,0,0,1,0,1.85,3.46,3.46,0,0,1-.57.7l-2.27,2.32-4.3,4.39-7.29,7.41a3,3,0,0,1-.89.72,1.91,1.91,0,0,1-1.1.15,2,2,0,0,1-1-.43l-.71-.58-2.33-1.9-1.47-1.23a2.56,2.56,0,0,1-.48-.45,3.26,3.26,0,0,1,.55.37l1.52,1.15c.68.51,1.48,1.13,2.39,1.83.49.34.92.85,1.53.91a1.65,1.65,0,0,0,.9-.14,2.62,2.62,0,0,0,.78-.66l7.21-7.49,4.27-4.41,2.27-2.33a1.62,1.62,0,0,0,0-2.57L251,419.88q-.54-.63-1.05-1.26a3.26,3.26,0,0,0-.51-.53,1.53,1.53,0,0,0-.63-.27,1.51,1.51,0,0,0-1.26.36l-1.09,1.08-2.12,2.13L237,428.75l-5,4.93a2.15,2.15,0,0,0-.66.81,1.2,1.2,0,0,0,0,.75A1.72,1.72,0,0,0,231.67,435.79Z" style="fill:#263238"></path><path d="M264,456.12c-.07.05-.46-.56-1.26-1.36a10.23,10.23,0,0,0-3.69-2.37,10.39,10.39,0,0,0-4.35-.58c-1.13.1-1.82.31-1.84.23a4.46,4.46,0,0,1,1.81-.55,9.22,9.22,0,0,1,8.31,3.05A4.48,4.48,0,0,1,264,456.12Z" style="fill:#263238"></path><path d="M285.11,445.73s-.45-.32-.92-1.06a5.92,5.92,0,0,1-.89-3.28,8.19,8.19,0,0,1,.82-3.29,3.49,3.49,0,0,1,.74-1.19,5.65,5.65,0,0,1-.44,1.32,10.21,10.21,0,0,0-.67,3.17,6.65,6.65,0,0,0,.72,3.12C284.85,445.26,285.17,445.68,285.11,445.73Z" style="fill:#263238"></path><path d="M65.93,303.88c-.09,0-.09-1.06-.33-2.74a22.34,22.34,0,0,0-5.55-11.77c-1.14-1.25-2-1.92-1.9-2s.24.11.63.4a13.1,13.1,0,0,1,1.53,1.34,19.6,19.6,0,0,1,3.86,5.5A19.37,19.37,0,0,1,66,301.1a12.39,12.39,0,0,1,.06,2C66,303.61,66,303.88,65.93,303.88Z" style="fill:#263238"></path><path d="M88.88,291.37a3.81,3.81,0,0,1-1,.25,8.67,8.67,0,0,1-1.25.18,15.41,15.41,0,0,1-1.66.14,31.46,31.46,0,0,1-4.36-.1,37.87,37.87,0,0,1-5.25-.91,39.23,39.23,0,0,1-5-1.71,30.62,30.62,0,0,1-3.87-2c-.54-.31-1-.63-1.41-.91a10.74,10.74,0,0,1-1-.74,4.62,4.62,0,0,1-.81-.72c.06-.07,1.27.86,3.41,2.05a36.62,36.62,0,0,0,3.88,1.86,41.73,41.73,0,0,0,5,1.64,42.16,42.16,0,0,0,5.17.94,33.9,33.9,0,0,0,4.29.21C87.35,291.54,88.86,291.28,88.88,291.37Z" style="fill:#263238"></path><path d="M79.3,365.53a126.15,126.15,0,0,0,1.76,18.2c1.53,8.34,6.79,19.08,10.08,21.06S187.64,393,187.64,393l40.8,42,19.57-20s-36.32-50.06-43.41-52.47-74.2-2-74.2-2l-12-16.74Z" style="fill:#263238"></path><path d="M131.07,371.39s37.22-43,45.25-51.45,11.92-14.9,24.08-10.09,11.23,12.62,10.77,23.17-5,45.17-5,45.17Z" style="fill:#263238"></path><path d="M169,350.59a9.32,9.32,0,0,1,1.6.34l4.31,1.11c3.63,1,8.64,2.35,14.09,4.12a105.93,105.93,0,0,1,13.7,5.33c.83.45,1.59.83,2.24,1.21s1.19.73,1.62,1a12.34,12.34,0,0,1,1.26,1,9.25,9.25,0,0,1-1.37-.87c-.45-.28-1-.58-1.65-1s-1.43-.71-2.26-1.13a124.8,124.8,0,0,0-13.7-5.16c-5.44-1.77-10.42-3.21-14-4.27l-4.26-1.27A11.16,11.16,0,0,1,169,350.59Z" style="fill:#455a64"></path><path d="M190.38,327.33a4.38,4.38,0,0,1-.34,1c-.29.75-.65,1.64-1.06,2.69-.89,2.27-2.07,5.43-3.2,9s-2,6.8-2.59,9.16L182.5,352a3.69,3.69,0,0,1-.31,1,4.87,4.87,0,0,1,.11-1.06c.1-.68.28-1.65.53-2.85a94.63,94.63,0,0,1,2.45-9.24c1.14-3.56,2.38-6.71,3.36-8.95.49-1.12.91-2,1.22-2.63A3.83,3.83,0,0,1,190.38,327.33Z" style="fill:#455a64"></path><path d="M180.34,384.68a10.71,10.71,0,0,1,1.7,1.63c1,1.05,2.35,2.52,3.82,4.18s2.78,3.16,3.71,4.28a10.69,10.69,0,0,1,1.43,1.88,10.22,10.22,0,0,1-1.7-1.63c-1-1-2.35-2.53-3.82-4.18s-2.79-3.17-3.72-4.29A10.25,10.25,0,0,1,180.34,384.68Z" style="fill:#455a64"></path><path d="M28.51,301.6s100.06,24.91,131.63,37.31c4.52,1.77,8.41,6.36,9,10.41,1.25,8.54,8.9,72,9.26,73.81s3.66,10-1.68,10S64,442.63,59,440c-4.21-2.2-28.49-101-34.09-130.75A7.09,7.09,0,0,1,28.51,301.6Z" style="fill:#2F80EC"></path><path d="M24.92,309.29c-.16.2,2.62,1.45,7.73,3.31s12.56,4.46,21.78,7.57c18.45,6.23,44,14.58,72.31,23.7l25,8,.15.05,0,.15c4.28,23,8,43,10.65,57.29l3.06,16.72c.35,1.94.61,3.45.8,4.49.08.5.15.88.19,1.16s.05.4.05.4,0-.13-.09-.39-.14-.66-.24-1.16c-.2-1-.5-2.53-.88-4.47-.75-3.92-1.84-9.59-3.21-16.69-2.69-14.27-6.47-34.26-10.82-57.26l.17.19-25-8c-28.28-9.12-53.84-17.53-72.27-23.85-9.21-3.16-16.64-5.79-21.73-7.73S24.72,309.55,24.92,309.29Z" style="fill:#263238"></path><path d="M235.19,396.65a3.46,3.46,0,0,1,0-.76c0-.54,0-1.26.07-2.16.08-1.94.19-4.64.33-8,.33-6.76.79-16,1.3-26.22,0-.64.06-1.28.1-1.91s.07-1.26,0-1.86a9,9,0,0,0-5.82-7.88L220,344.34l-7.58-2.43-2.05-.69a4.08,4.08,0,0,1-.71-.27,3.6,3.6,0,0,1,.74.17l2.08.6,7.63,2.27c3.22,1,7,2.12,11.29,3.46a9.39,9.39,0,0,1,6.17,8.3,17.49,17.49,0,0,1,0,1.92c0,.63-.07,1.27-.1,1.91-.57,10.21-1.08,19.45-1.45,26.21-.21,3.31-.38,6-.5,7.95-.07.89-.12,1.61-.16,2.16S235.2,396.65,235.19,396.65Z" style="fill:#263238"></path></g></svg>